<svg xmlns="http://www.w3.org/2000/svg" xmlns:xlink="http://www.w3.org/1999/xlink" width="252" zoomAndPan="magnify" viewBox="0 0 189 107.999999" height="144" preserveAspectRatio="xMidYMid meet" version="1.0"><defs><g/><clipPath id="e7eb0c9ad9"><path d="M 0.398438 11 L 19 11 L 19 38 L 0.398438 38 Z M 0.398438 11 " clip-rule="nonzero"/></clipPath><clipPath id="34634e6b7d"><rect x="0" width="184" y="0" height="48"/></clipPath></defs><rect x="-18.9" width="226.8" fill="#ffffff" y="-10.8" height="129.599998" fill-opacity="1"/><rect x="-18.9" width="226.8" fill="#ffffff" y="-10.8" height="129.599998" fill-opacity="1"/><g transform="matrix(1, 0, 0, 1, 2, 30)"><g clip-path="url(#34634e6b7d)"><g clip-path="url(#e7eb0c9ad9)"><g fill="#5297ce" fill-opacity="1"><g transform="translate(1.416251, 37.395577)"><g><path d="M 8 0.453125 C 6.207031 0.453125 4.5625 0.117188 3.0625 -0.546875 C 1.570312 -1.210938 0.347656 -2.160156 -0.609375 -3.390625 L 2.796875 -7.46875 C 4.222656 -5.53125 5.851562 -4.5625 7.6875 -4.5625 C 10.175781 -4.5625 11.421875 -6.019531 11.421875 -8.9375 L 11.421875 -21.484375 L 2.15625 -21.484375 L 2.15625 -26.390625 L 17.5 -26.390625 L 17.5 -9.28125 C 17.5 -6.03125 16.691406 -3.59375 15.078125 -1.96875 C 13.472656 -0.351562 11.113281 0.453125 8 0.453125 Z M 8 0.453125 "/></g></g></g></g><g fill="#5297ce" fill-opacity="1"><g transform="translate(21.815299, 37.395577)"><g><path d="M 2.71875 -20.28125 L 8.59375 -20.28125 L 8.59375 0 L 2.71875 0 Z M 5.65625 -23.109375 C 4.570312 -23.109375 3.691406 -23.421875 3.015625 -24.046875 C 2.335938 -24.679688 2 -25.460938 2 -26.390625 C 2 -27.316406 2.335938 -28.09375 3.015625 -28.71875 C 3.691406 -29.351562 4.570312 -29.671875 5.65625 -29.671875 C 6.738281 -29.671875 7.617188 -29.367188 8.296875 -28.765625 C 8.972656 -28.160156 9.3125 -27.40625 9.3125 -26.5 C 9.3125 -25.519531 8.972656 -24.707031 8.296875 -24.0625 C 7.617188 -23.425781 6.738281 -23.109375 5.65625 -23.109375 Z M 5.65625 -23.109375 "/></g></g></g><g fill="#5297ce" fill-opacity="1"><g transform="translate(33.164862, 37.395577)"><g><path d="M 22.84375 -20.28125 L 14.296875 0 L 8.21875 0 L -0.296875 -20.28125 L 5.765625 -20.28125 L 11.390625 -6.484375 L 17.1875 -20.28125 Z M 22.84375 -20.28125 "/></g></g></g><g fill="#5297ce" fill-opacity="1"><g transform="translate(55.713155, 37.395577)"><g><path d="M 15.046875 -20.578125 C 17.554688 -20.578125 19.582031 -19.820312 21.125 -18.3125 C 22.675781 -16.8125 23.453125 -14.578125 23.453125 -11.609375 L 23.453125 0 L 17.5625 0 L 17.5625 -10.703125 C 17.5625 -12.316406 17.207031 -13.519531 16.5 -14.3125 C 15.800781 -15.101562 14.785156 -15.5 13.453125 -15.5 C 11.972656 -15.5 10.789062 -15.039062 9.90625 -14.125 C 9.03125 -13.207031 8.59375 -11.84375 8.59375 -10.03125 L 8.59375 0 L 2.71875 0 L 2.71875 -20.28125 L 8.328125 -20.28125 L 8.328125 -17.90625 C 9.109375 -18.757812 10.078125 -19.414062 11.234375 -19.875 C 12.390625 -20.34375 13.660156 -20.578125 15.046875 -20.578125 Z M 15.046875 -20.578125 "/></g></g></g><g fill="#5297ce" fill-opacity="1"><g transform="translate(81.768126, 37.395577)"><g><path d="M 2.71875 -20.28125 L 8.59375 -20.28125 L 8.59375 0 L 2.71875 0 Z M 5.65625 -23.109375 C 4.570312 -23.109375 3.691406 -23.421875 3.015625 -24.046875 C 2.335938 -24.679688 2 -25.460938 2 -26.390625 C 2 -27.316406 2.335938 -28.09375 3.015625 -28.71875 C 3.691406 -29.351562 4.570312 -29.671875 5.65625 -29.671875 C 6.738281 -29.671875 7.617188 -29.367188 8.296875 -28.765625 C 8.972656 -28.160156 9.3125 -27.40625 9.3125 -26.5 C 9.3125 -25.519531 8.972656 -24.707031 8.296875 -24.0625 C 7.617188 -23.425781 6.738281 -23.109375 5.65625 -23.109375 Z M 5.65625 -23.109375 "/></g></g></g><g fill="#4b9f5f" fill-opacity="1"><g transform="translate(93.12326, 37.395577)"><g><path d="M 15.765625 0.453125 C 13.066406 0.453125 10.628906 -0.128906 8.453125 -1.296875 C 6.285156 -2.460938 4.578125 -4.082031 3.328125 -6.15625 C 2.085938 -8.238281 1.46875 -10.585938 1.46875 -13.203125 C 1.46875 -15.804688 2.085938 -18.144531 3.328125 -20.21875 C 4.578125 -22.300781 6.285156 -23.925781 8.453125 -25.09375 C 10.628906 -26.257812 13.078125 -26.84375 15.796875 -26.84375 C 18.085938 -26.84375 20.15625 -26.441406 22 -25.640625 C 23.84375 -24.835938 25.394531 -23.679688 26.65625 -22.171875 L 22.734375 -18.546875 C 20.953125 -20.609375 18.738281 -21.640625 16.09375 -21.640625 C 14.46875 -21.640625 13.007812 -21.28125 11.71875 -20.5625 C 10.4375 -19.851562 9.4375 -18.851562 8.71875 -17.5625 C 8.007812 -16.28125 7.65625 -14.828125 7.65625 -13.203125 C 7.65625 -11.566406 8.007812 -10.109375 8.71875 -8.828125 C 9.4375 -7.546875 10.4375 -6.546875 11.71875 -5.828125 C 13.007812 -5.109375 14.46875 -4.75 16.09375 -4.75 C 18.738281 -4.75 20.953125 -5.789062 22.734375 -7.875 L 26.65625 -4.265625 C 25.394531 -2.722656 23.832031 -1.550781 21.96875 -0.75 C 20.113281 0.0507812 18.046875 0.453125 15.765625 0.453125 Z M 15.765625 0.453125 "/></g></g></g><g fill="#4b9f5f" fill-opacity="1"><g transform="translate(120.611077, 37.395577)"><g><path d="M 10.890625 -20.578125 C 14.035156 -20.578125 16.445312 -19.828125 18.125 -18.328125 C 19.8125 -16.835938 20.65625 -14.585938 20.65625 -11.578125 L 20.65625 0 L 15.15625 0 L 15.15625 -2.53125 C 14.050781 -0.644531 11.988281 0.296875 8.96875 0.296875 C 7.414062 0.296875 6.066406 0.0351562 4.921875 -0.484375 C 3.773438 -1.015625 2.898438 -1.742188 2.296875 -2.671875 C 1.691406 -3.609375 1.390625 -4.664062 1.390625 -5.84375 C 1.390625 -7.726562 2.097656 -9.210938 3.515625 -10.296875 C 4.941406 -11.378906 7.140625 -11.921875 10.109375 -11.921875 L 14.78125 -11.921875 C 14.78125 -13.203125 14.390625 -14.1875 13.609375 -14.875 C 12.828125 -15.5625 11.660156 -15.90625 10.109375 -15.90625 C 9.023438 -15.90625 7.960938 -15.734375 6.921875 -15.390625 C 5.878906 -15.054688 4.992188 -14.601562 4.265625 -14.03125 L 2.15625 -18.140625 C 3.257812 -18.910156 4.582031 -19.507812 6.125 -19.9375 C 7.675781 -20.363281 9.265625 -20.578125 10.890625 -20.578125 Z M 10.4375 -3.65625 C 11.445312 -3.65625 12.34375 -3.882812 13.125 -4.34375 C 13.90625 -4.8125 14.457031 -5.5 14.78125 -6.40625 L 14.78125 -8.484375 L 10.75 -8.484375 C 8.332031 -8.484375 7.125 -7.691406 7.125 -6.109375 C 7.125 -5.359375 7.414062 -4.757812 8 -4.3125 C 8.59375 -3.875 9.40625 -3.65625 10.4375 -3.65625 Z M 10.4375 -3.65625 "/></g></g></g><g fill="#4b9f5f" fill-opacity="1"><g transform="translate(143.875786, 37.395577)"><g><path d="M 8.328125 -17.609375 C 9.035156 -18.585938 9.984375 -19.328125 11.171875 -19.828125 C 12.367188 -20.328125 13.75 -20.578125 15.3125 -20.578125 L 15.3125 -15.15625 C 14.65625 -15.207031 14.210938 -15.234375 13.984375 -15.234375 C 12.304688 -15.234375 10.988281 -14.757812 10.03125 -13.8125 C 9.070312 -12.875 8.59375 -11.460938 8.59375 -9.578125 L 8.59375 0 L 2.71875 0 L 2.71875 -20.28125 L 8.328125 -20.28125 Z M 8.328125 -17.609375 "/></g></g></g><g fill="#4b9f5f" fill-opacity="1"><g transform="translate(159.787806, 37.395577)"><g><path d="M 22.578125 -10.0625 C 22.578125 -9.988281 22.539062 -9.460938 22.46875 -8.484375 L 7.125 -8.484375 C 7.40625 -7.222656 8.054688 -6.226562 9.078125 -5.5 C 10.109375 -4.769531 11.394531 -4.40625 12.9375 -4.40625 C 13.988281 -4.40625 14.921875 -4.5625 15.734375 -4.875 C 16.554688 -5.195312 17.316406 -5.695312 18.015625 -6.375 L 21.15625 -2.984375 C 19.238281 -0.796875 16.445312 0.296875 12.78125 0.296875 C 10.488281 0.296875 8.460938 -0.144531 6.703125 -1.03125 C 4.953125 -1.925781 3.597656 -3.164062 2.640625 -4.75 C 1.679688 -6.332031 1.203125 -8.128906 1.203125 -10.140625 C 1.203125 -12.128906 1.671875 -13.921875 2.609375 -15.515625 C 3.554688 -17.109375 4.851562 -18.347656 6.5 -19.234375 C 8.144531 -20.128906 9.988281 -20.578125 12.03125 -20.578125 C 14.007812 -20.578125 15.800781 -20.148438 17.40625 -19.296875 C 19.019531 -18.441406 20.285156 -17.21875 21.203125 -15.625 C 22.117188 -14.03125 22.578125 -12.175781 22.578125 -10.0625 Z M 12.0625 -16.140625 C 10.726562 -16.140625 9.609375 -15.757812 8.703125 -15 C 7.804688 -14.25 7.253906 -13.222656 7.046875 -11.921875 L 17.046875 -11.921875 C 16.835938 -13.203125 16.28125 -14.222656 15.375 -14.984375 C 14.476562 -15.753906 13.375 -16.140625 12.0625 -16.140625 Z M 12.0625 -16.140625 "/></g></g></g></g></g></svg>