<svg xmlns="http://www.w3.org/2000/svg" xmlns:xlink="http://www.w3.org/1999/xlink" width="400" zoomAndPan="magnify" viewBox="0 0 300 89.999999" height="120" preserveAspectRatio="xMidYMid meet" version="1.0"><defs><g/></defs><rect x="-30" width="360" fill="#ffffff" y="-9" height="107.999999" fill-opacity="1"/><rect x="-30" width="360" fill="#ffffff" y="-9" height="107.999999" fill-opacity="1"/><g fill="#5297ce" fill-opacity="1"><g transform="translate(34.04185, 61.124999)"><g><path d="M 10.171875 0.578125 C 7.898438 0.578125 5.8125 0.15625 3.90625 -0.6875 C 2.007812 -1.539062 0.453125 -2.75 -0.765625 -4.3125 L 3.546875 -9.5 C 5.367188 -7.039062 7.453125 -5.8125 9.796875 -5.8125 C 12.960938 -5.8125 14.546875 -7.664062 14.546875 -11.375 L 14.546875 -27.359375 L 2.734375 -27.359375 L 2.734375 -33.59375 L 22.265625 -33.59375 L 22.265625 -11.8125 C 22.265625 -7.675781 21.238281 -4.578125 19.1875 -2.515625 C 17.144531 -0.453125 14.140625 0.578125 10.171875 0.578125 Z M 10.171875 0.578125 "/></g></g></g><g fill="#5297ce" fill-opacity="1"><g transform="translate(60.009809, 61.124999)"><g><path d="M 3.453125 -25.828125 L 10.9375 -25.828125 L 10.9375 0 L 3.453125 0 Z M 7.1875 -29.421875 C 5.8125 -29.421875 4.691406 -29.820312 3.828125 -30.625 C 2.960938 -31.425781 2.53125 -32.414062 2.53125 -33.59375 C 2.53125 -34.78125 2.960938 -35.773438 3.828125 -36.578125 C 4.691406 -37.378906 5.8125 -37.78125 7.1875 -37.78125 C 8.5625 -37.78125 9.679688 -37.394531 10.546875 -36.625 C 11.410156 -35.851562 11.84375 -34.894531 11.84375 -33.75 C 11.84375 -32.5 11.410156 -31.460938 10.546875 -30.640625 C 9.679688 -29.828125 8.5625 -29.421875 7.1875 -29.421875 Z M 7.1875 -29.421875 "/></g></g></g><g fill="#5297ce" fill-opacity="1"><g transform="translate(74.45778, 61.124999)"><g><path d="M 29.09375 -25.828125 L 18.1875 0 L 10.46875 0 L -0.390625 -25.828125 L 7.34375 -25.828125 L 14.5 -8.25 L 21.890625 -25.828125 Z M 29.09375 -25.828125 "/></g></g></g><g fill="#5297ce" fill-opacity="1"><g transform="translate(103.161735, 61.124999)"><g><path d="M 19.15625 -26.203125 C 22.351562 -26.203125 24.9375 -25.242188 26.90625 -23.328125 C 28.875 -21.410156 29.859375 -18.5625 29.859375 -14.78125 L 29.859375 0 L 22.375 0 L 22.375 -13.625 C 22.375 -15.675781 21.925781 -17.207031 21.03125 -18.21875 C 20.132812 -19.226562 18.835938 -19.734375 17.140625 -19.734375 C 15.242188 -19.734375 13.734375 -19.144531 12.609375 -17.96875 C 11.492188 -16.800781 10.9375 -15.066406 10.9375 -12.765625 L 10.9375 0 L 3.453125 0 L 3.453125 -25.828125 L 10.609375 -25.828125 L 10.609375 -22.796875 C 11.597656 -23.890625 12.828125 -24.726562 14.296875 -25.3125 C 15.773438 -25.90625 17.394531 -26.203125 19.15625 -26.203125 Z M 19.15625 -26.203125 "/></g></g></g><g fill="#5297ce" fill-opacity="1"><g transform="translate(136.329675, 61.124999)"><g><path d="M 3.453125 -25.828125 L 10.9375 -25.828125 L 10.9375 0 L 3.453125 0 Z M 7.1875 -29.421875 C 5.8125 -29.421875 4.691406 -29.820312 3.828125 -30.625 C 2.960938 -31.425781 2.53125 -32.414062 2.53125 -33.59375 C 2.53125 -34.78125 2.960938 -35.773438 3.828125 -36.578125 C 4.691406 -37.378906 5.8125 -37.78125 7.1875 -37.78125 C 8.5625 -37.78125 9.679688 -37.394531 10.546875 -36.625 C 11.410156 -35.851562 11.84375 -34.894531 11.84375 -33.75 C 11.84375 -32.5 11.410156 -31.460938 10.546875 -30.640625 C 9.679688 -29.828125 8.5625 -29.421875 7.1875 -29.421875 Z M 7.1875 -29.421875 "/></g></g></g><g fill="#4b9f5f" fill-opacity="1"><g transform="translate(150.784032, 61.124999)"><g><path d="M 20.0625 0.578125 C 16.632812 0.578125 13.535156 -0.164062 10.765625 -1.65625 C 8.003906 -3.144531 5.832031 -5.207031 4.25 -7.84375 C 2.664062 -10.488281 1.875 -13.472656 1.875 -16.796875 C 1.875 -20.128906 2.664062 -23.113281 4.25 -25.75 C 5.832031 -28.394531 8.003906 -30.457031 10.765625 -31.9375 C 13.535156 -33.425781 16.648438 -34.171875 20.109375 -34.171875 C 23.023438 -34.171875 25.65625 -33.660156 28 -32.640625 C 30.351562 -31.617188 32.332031 -30.144531 33.9375 -28.21875 L 28.9375 -23.609375 C 26.664062 -26.234375 23.851562 -27.546875 20.5 -27.546875 C 18.414062 -27.546875 16.554688 -27.085938 14.921875 -26.171875 C 13.296875 -25.265625 12.023438 -23.992188 11.109375 -22.359375 C 10.203125 -20.734375 9.75 -18.878906 9.75 -16.796875 C 9.75 -14.722656 10.203125 -12.867188 11.109375 -11.234375 C 12.023438 -9.597656 13.296875 -8.320312 14.921875 -7.40625 C 16.554688 -6.5 18.414062 -6.046875 20.5 -6.046875 C 23.851562 -6.046875 26.664062 -7.375 28.9375 -10.03125 L 33.9375 -5.421875 C 32.332031 -3.472656 30.347656 -1.984375 27.984375 -0.953125 C 25.617188 0.0664062 22.976562 0.578125 20.0625 0.578125 Z M 20.0625 0.578125 "/></g></g></g><g fill="#4b9f5f" fill-opacity="1"><g transform="translate(185.775977, 61.124999)"><g><path d="M 13.875 -26.203125 C 17.875 -26.203125 20.941406 -25.25 23.078125 -23.34375 C 25.222656 -21.445312 26.296875 -18.578125 26.296875 -14.734375 L 26.296875 0 L 19.296875 0 L 19.296875 -3.21875 C 17.890625 -0.8125 15.265625 0.390625 11.421875 0.390625 C 9.441406 0.390625 7.722656 0.0546875 6.265625 -0.609375 C 4.804688 -1.285156 3.691406 -2.21875 2.921875 -3.40625 C 2.160156 -4.59375 1.78125 -5.9375 1.78125 -7.4375 C 1.78125 -9.84375 2.679688 -11.734375 4.484375 -13.109375 C 6.296875 -14.484375 9.085938 -15.171875 12.859375 -15.171875 L 18.8125 -15.171875 C 18.8125 -16.796875 18.316406 -18.046875 17.328125 -18.921875 C 16.335938 -19.804688 14.847656 -20.25 12.859375 -20.25 C 11.484375 -20.25 10.128906 -20.03125 8.796875 -19.59375 C 7.472656 -19.164062 6.347656 -18.585938 5.421875 -17.859375 L 2.734375 -23.09375 C 4.140625 -24.082031 5.828125 -24.847656 7.796875 -25.390625 C 9.765625 -25.929688 11.789062 -26.203125 13.875 -26.203125 Z M 13.296875 -4.65625 C 14.578125 -4.65625 15.710938 -4.953125 16.703125 -5.546875 C 17.691406 -6.140625 18.394531 -7.007812 18.8125 -8.15625 L 18.8125 -10.796875 L 13.6875 -10.796875 C 10.613281 -10.796875 9.078125 -9.789062 9.078125 -7.78125 C 9.078125 -6.820312 9.453125 -6.0625 10.203125 -5.5 C 10.953125 -4.9375 11.984375 -4.65625 13.296875 -4.65625 Z M 13.296875 -4.65625 "/></g></g></g><g fill="#4b9f5f" fill-opacity="1"><g transform="translate(215.391923, 61.124999)"><g><path d="M 10.609375 -22.421875 C 11.503906 -23.660156 12.710938 -24.597656 14.234375 -25.234375 C 15.753906 -25.878906 17.503906 -26.203125 19.484375 -26.203125 L 19.484375 -19.296875 C 18.648438 -19.359375 18.09375 -19.390625 17.8125 -19.390625 C 15.664062 -19.390625 13.984375 -18.789062 12.765625 -17.59375 C 11.546875 -16.394531 10.9375 -14.59375 10.9375 -12.1875 L 10.9375 0 L 3.453125 0 L 3.453125 -25.828125 L 10.609375 -25.828125 Z M 10.609375 -22.421875 "/></g></g></g><g fill="#4b9f5f" fill-opacity="1"><g transform="translate(235.647885, 61.124999)"><g><path d="M 28.75 -12.8125 C 28.75 -12.71875 28.703125 -12.046875 28.609375 -10.796875 L 9.078125 -10.796875 C 9.421875 -9.203125 10.25 -7.9375 11.5625 -7 C 12.875 -6.070312 14.507812 -5.609375 16.46875 -5.609375 C 17.8125 -5.609375 19 -5.804688 20.03125 -6.203125 C 21.070312 -6.609375 22.039062 -7.242188 22.9375 -8.109375 L 26.921875 -3.796875 C 24.492188 -1.003906 20.941406 0.390625 16.265625 0.390625 C 13.359375 0.390625 10.785156 -0.175781 8.546875 -1.3125 C 6.304688 -2.457031 4.578125 -4.035156 3.359375 -6.046875 C 2.140625 -8.066406 1.53125 -10.351562 1.53125 -12.90625 C 1.53125 -15.4375 2.128906 -17.71875 3.328125 -19.75 C 4.535156 -21.78125 6.1875 -23.363281 8.28125 -24.5 C 10.375 -25.632812 12.71875 -26.203125 15.3125 -26.203125 C 17.84375 -26.203125 20.128906 -25.65625 22.171875 -24.5625 C 24.222656 -23.476562 25.832031 -21.921875 27 -19.890625 C 28.164062 -17.859375 28.75 -15.5 28.75 -12.8125 Z M 15.359375 -20.546875 C 13.660156 -20.546875 12.234375 -20.0625 11.078125 -19.09375 C 9.929688 -18.132812 9.226562 -16.828125 8.96875 -15.171875 L 21.703125 -15.171875 C 21.441406 -16.796875 20.734375 -18.097656 19.578125 -19.078125 C 18.429688 -20.054688 17.023438 -20.546875 15.359375 -20.546875 Z M 15.359375 -20.546875 "/></g></g></g></svg>